<svg width="41" height="32" viewBox="0 0 41 32" fill="none" xmlns="http://www.w3.org/2000/svg">
<path d="M39.9758 1.55822L39.121 0.703555C38.2793 -0.138164 36.911 -0.138164 36.0693 0.703555L21.5286 15.2401C21.0661 15.7025 20.9728 16.4079 21.2248 17.0113C21.8378 18.4573 22.1485 19.994 22.1485 21.5739C22.1485 21.8839 22.5302 22.0554 22.7494 21.8362L39.9758 4.60999C40.8175 3.76396 40.8175 2.39994 39.9758 1.55822Z" fill="#86DFAD"/>
<path d="M35.2446 26.0986C38.2436 26.0986 40.6748 23.6674 40.6748 20.6684C40.6748 17.6694 38.2436 15.2383 35.2446 15.2383C32.2456 15.2383 29.8145 17.6694 29.8145 20.6684C29.8145 23.6674 32.2456 26.0986 35.2446 26.0986Z" fill="#86DFAD"/>
<path d="M20.0083 10.8603C23.0073 10.8603 25.4385 8.42916 25.4385 5.43017C25.4385 2.43117 23.0073 0 20.0083 0C17.0093 0 14.5781 2.43117 14.5781 5.43017C14.5781 8.42916 17.0093 10.8603 20.0083 10.8603Z" fill="#86DFAD"/>
<path d="M0 21.5748C0 27.3329 4.66614 31.9991 10.4244 31.9991C15.3409 31.9991 19.4588 28.5977 20.5595 24.0222C20.7494 23.2366 20.8487 22.4165 20.8487 21.5748C20.8487 19.9258 20.4646 18.3676 19.7826 16.982C18.0862 13.5288 14.5294 11.1504 10.4201 11.1504C4.66614 11.146 0 15.8165 0 21.5748ZM4.23449 20.8021C4.23449 20.2064 4.71794 19.723 5.31362 19.723H15.5351C15.9452 19.723 16.2991 19.9517 16.4804 20.2841C16.5624 20.4395 16.6142 20.6122 16.6142 20.8021V22.3474C16.6142 22.9431 16.1308 23.4265 15.5351 23.4265H14.6804H5.31362C4.71794 23.4265 4.23449 22.9431 4.23449 22.3474V20.8021Z" fill="#019542"/>
</svg>
