<svg width="156" height="46" viewBox="0 0 156 46" fill="none" xmlns="http://www.w3.org/2000/svg">
<path d="M149.726 46H5.43812C3.99609 45.9966 2.61416 45.4219 1.59493 44.4018C0.575685 43.3818 0.00218641 41.9993 0 40.5573V5.43444C0.00219208 3.99318 0.575956 2.61162 1.59543 1.59283C2.61491 0.574045 3.99685 0.00121649 5.43812 3.9887e-08H149.726C151.176 -0.000174066 152.567 0.569636 153.599 1.5864C154.632 2.60317 155.224 3.98532 155.246 5.43444V40.5573C155.225 42.0074 154.634 43.391 153.601 44.4093C152.568 45.4276 151.177 45.9989 149.726 46Z" fill="black"/>
<path d="M145 38.1912C145 38.6918 144.899 39.1874 144.704 39.6497C144.509 40.1121 144.222 40.5322 143.861 40.8859C143.5 41.2396 143.071 41.5201 142.6 41.7112C142.128 41.9024 141.623 42.0005 141.113 42H13.8936C12.8624 42.0013 11.8729 41.6007 11.1427 40.8865C10.4125 40.1722 10.0015 39.2028 10 38.1912V7.81432C10.0013 6.80226 10.4121 5.83209 11.1421 5.1169C11.8722 4.40171 12.8618 4 13.8936 4H141.112C141.623 4.00011 142.128 4.09885 142.6 4.29059C143.071 4.48233 143.5 4.76332 143.861 5.11752C144.222 5.47171 144.508 5.89217 144.703 6.35489C144.899 6.81761 144.999 7.31352 144.999 7.81432V38.1912H145Z" fill="black"/>
<path d="M38.1333 24.0515C37.8311 24.0515 37.578 23.9505 37.3739 23.7487C37.1691 23.5475 37.0667 23.2979 37.0667 23C37.0667 22.7021 37.1691 22.4522 37.3739 22.2503C37.578 22.0491 37.8311 21.9485 38.1333 21.9485H40.2667C40.5689 21.9485 40.822 22.0491 41.0261 22.2503C41.2309 22.4522 41.3333 22.7021 41.3333 23C41.3333 23.2979 41.2309 23.5475 41.0261 23.7487C40.822 23.9505 40.5689 24.0515 40.2667 24.0515H38.1333ZM37.4933 30.7809L35.7867 29.5192C35.5378 29.3439 35.3956 29.1161 35.36 28.8357C35.3244 28.5553 35.3956 28.2924 35.5733 28.0471C35.7511 27.8018 35.9822 27.6616 36.2667 27.6265C36.5511 27.5915 36.8178 27.6616 37.0667 27.8368L38.7733 29.0986C39.0222 29.2738 39.1644 29.5016 39.2 29.782C39.2356 30.0624 39.1644 30.3253 38.9867 30.5706C38.8089 30.816 38.5778 30.9562 38.2933 30.9912C38.0089 31.0263 37.7422 30.9562 37.4933 30.7809ZM37.0667 18.1632C36.8178 18.3384 36.5511 18.4085 36.2667 18.3735C35.9822 18.3384 35.7511 18.1982 35.5733 17.9529C35.3956 17.7076 35.3244 17.4447 35.36 17.1643C35.3956 16.8839 35.5378 16.6561 35.7867 16.4808L37.4933 15.2191C37.7422 15.0438 38.0089 14.9737 38.2933 15.0088C38.5778 15.0438 38.8089 15.184 38.9867 15.4294C39.1644 15.6747 39.2356 15.9376 39.2 16.218C39.1644 16.4984 39.0222 16.7262 38.7733 16.9014L37.0667 18.1632ZM23.2 30.3604V26.1544H22.1333C21.5467 26.1544 21.0446 25.9483 20.6272 25.5362C20.2091 25.1247 20 24.6298 20 24.0515V21.9485C20 21.3702 20.2091 20.875 20.6272 20.4628C21.0446 20.0513 21.5467 19.8456 22.1333 19.8456H26.4L30.1067 17.6375C30.4622 17.4272 30.8224 17.4272 31.1872 17.6375C31.5513 17.8478 31.7333 18.1544 31.7333 18.5575V27.4425C31.7333 27.8456 31.5513 28.1522 31.1872 28.3625C30.8224 28.5728 30.4622 28.5728 30.1067 28.3625L26.4 26.1544H25.3333V30.3604H23.2ZM32.8 26.5225V19.4775C33.28 19.8981 33.6668 20.4109 33.9605 21.0159C34.2535 21.6201 34.4 22.2815 34.4 23C34.4 23.7185 34.2535 24.3799 33.9605 24.9841C33.6668 25.5891 33.28 26.1019 32.8 26.5225V26.5225Z" fill="white"/>
<path d="M59.3723 21.4945H57.5794C57.5282 21.2005 57.4339 20.94 57.2965 20.7131C57.1591 20.483 56.9881 20.288 56.7836 20.1282C56.579 19.9684 56.3457 19.8485 56.0836 19.7686C55.8248 19.6855 55.5451 19.644 55.2447 19.644C54.7109 19.644 54.2379 19.7782 53.8256 20.0467C53.4134 20.312 53.0906 20.7019 52.8572 21.2164C52.6239 21.7278 52.5073 22.3526 52.5073 23.0909C52.5073 23.842 52.6239 24.4748 52.8572 24.9893C53.0938 25.5007 53.4165 25.8874 53.8256 26.1495C54.2379 26.4084 54.7093 26.5378 55.2399 26.5378C55.5339 26.5378 55.8088 26.4995 56.0645 26.4228C56.3233 26.3429 56.555 26.2262 56.7596 26.0728C56.9673 25.9194 57.1415 25.7308 57.2821 25.5071C57.426 25.2834 57.525 25.0277 57.5794 24.7401L59.3723 24.7496C59.3052 25.2163 59.1598 25.6541 58.9361 26.0632C58.7156 26.4723 58.4263 26.8335 58.0684 27.1467C57.7104 27.4567 57.2917 27.6996 56.8123 27.8754C56.3329 28.0479 55.8008 28.1342 55.2159 28.1342C54.353 28.1342 53.5827 27.9345 52.9052 27.535C52.2276 27.1355 51.6939 26.5586 51.304 25.8043C50.9141 25.0501 50.7191 24.1456 50.7191 23.0909C50.7191 22.033 50.9157 21.1286 51.3088 20.3775C51.7019 19.6232 52.2372 19.0463 52.9148 18.6468C53.5923 18.2473 54.3594 18.0476 55.2159 18.0476C55.7624 18.0476 56.2706 18.1243 56.7404 18.2777C57.2102 18.4311 57.6289 18.6564 57.9964 18.9537C58.364 19.2477 58.666 19.6088 58.9025 20.0371C59.1422 20.4622 59.2988 20.948 59.3723 21.4945ZM64.1364 28.1438C63.4173 28.1438 62.7941 27.9856 62.2667 27.6692C61.7394 27.3528 61.3303 26.9102 61.0395 26.3413C60.7518 25.7724 60.608 25.1076 60.608 24.3469C60.608 23.5863 60.7518 22.9199 61.0395 22.3478C61.3303 21.7757 61.7394 21.3315 62.2667 21.0151C62.7941 20.6987 63.4173 20.5405 64.1364 20.5405C64.8555 20.5405 65.4787 20.6987 66.0061 21.0151C66.5334 21.3315 66.9409 21.7757 67.2286 22.3478C67.5194 22.9199 67.6648 23.5863 67.6648 24.3469C67.6648 25.1076 67.5194 25.7724 67.2286 26.3413C66.9409 26.9102 66.5334 27.3528 66.0061 27.6692C65.4787 27.9856 64.8555 28.1438 64.1364 28.1438ZM64.146 26.7536C64.5359 26.7536 64.8619 26.6465 65.124 26.4324C65.3861 26.215 65.581 25.9242 65.7089 25.5598C65.8399 25.1955 65.9054 24.7896 65.9054 24.3422C65.9054 23.8915 65.8399 23.484 65.7089 23.1197C65.581 22.7521 65.3861 22.4597 65.124 22.2424C64.8619 22.025 64.5359 21.9164 64.146 21.9164C63.7465 21.9164 63.4141 22.025 63.1488 22.2424C62.8868 22.4597 62.6902 22.7521 62.5592 23.1197C62.4313 23.484 62.3674 23.8915 62.3674 24.3422C62.3674 24.7896 62.4313 25.1955 62.5592 25.5598C62.6902 25.9242 62.8868 26.215 63.1488 26.4324C63.4141 26.6465 63.7465 26.7536 64.146 26.7536ZM69.1378 28V20.6364H70.7965V21.8876H70.8828C71.0362 21.4657 71.2903 21.1365 71.6451 20.9C71.9998 20.6603 72.4233 20.5405 72.9155 20.5405C73.4141 20.5405 73.8343 20.6619 74.1763 20.9048C74.5215 21.1445 74.7644 21.4721 74.905 21.8876H74.9817C75.1447 21.4785 75.4196 21.1525 75.8063 20.9096C76.1962 20.6635 76.658 20.5405 77.1918 20.5405C77.8693 20.5405 78.4222 20.7546 78.8505 21.1829C79.2788 21.6112 79.4929 22.236 79.4929 23.0574V28H77.7527V23.3258C77.7527 22.8688 77.6312 22.5348 77.3883 22.3239C77.1454 22.1097 76.8482 22.0027 76.4966 22.0027C76.0779 22.0027 75.7504 22.1337 75.5138 22.3958C75.2805 22.6547 75.1639 22.9918 75.1639 23.4073V28H73.462V23.2539C73.462 22.8736 73.3469 22.57 73.1168 22.343C72.8899 22.1161 72.5927 22.0027 72.2251 22.0027C71.9759 22.0027 71.7489 22.0666 71.5444 22.1944C71.3398 22.3191 71.1768 22.4964 71.0554 22.7266C70.9339 22.9535 70.8732 23.2187 70.8732 23.5224V28H69.1378ZM81.2535 28V20.6364H82.9889V28H81.2535ZM82.126 19.5913C81.8512 19.5913 81.6147 19.5002 81.4165 19.318C81.2184 19.1326 81.1193 18.9105 81.1193 18.6516C81.1193 18.3896 81.2184 18.1674 81.4165 17.9853C81.6147 17.7999 81.8512 17.7072 82.126 17.7072C82.4041 17.7072 82.6406 17.7999 82.8355 17.9853C83.0337 18.1674 83.1328 18.3896 83.1328 18.6516C83.1328 18.9105 83.0337 19.1326 82.8355 19.318C82.6406 19.5002 82.4041 19.5913 82.126 19.5913ZM86.509 23.6854V28H84.7735V20.6364H86.4323V21.8876H86.5186C86.6879 21.4753 86.958 21.1477 87.3287 20.9048C87.7027 20.6619 88.1645 20.5405 88.7142 20.5405C89.2224 20.5405 89.665 20.6491 90.0422 20.8665C90.4225 21.0838 90.7165 21.3986 90.9243 21.8109C91.1352 22.2232 91.2391 22.7234 91.2359 23.3114V28H89.5004V23.5799C89.5004 23.0877 89.3726 22.7026 89.1169 22.4245C88.8644 22.1465 88.5145 22.0075 88.067 22.0075C87.7634 22.0075 87.4933 22.0746 87.2568 22.2088C87.0235 22.3398 86.8398 22.53 86.7055 22.7793C86.5745 23.0286 86.509 23.3306 86.509 23.6854ZM96.2025 30.9148C95.5793 30.9148 95.0439 30.8301 94.5965 30.6607C94.1491 30.4945 93.7895 30.2708 93.5178 29.9895C93.2462 29.7083 93.0576 29.3967 92.9521 29.0547L94.515 28.676C94.5853 28.8198 94.6876 28.962 94.8218 29.1026C94.9561 29.2464 95.1366 29.3647 95.3635 29.4574C95.5937 29.5533 95.8829 29.6012 96.2313 29.6012C96.7235 29.6012 97.1309 29.4814 97.4537 29.2417C97.7765 29.0051 97.9379 28.6152 97.9379 28.0719V26.6768H97.8517C97.7622 26.8558 97.6311 27.0396 97.4585 27.2282C97.2892 27.4167 97.0638 27.5749 96.7826 27.7028C96.5045 27.8306 96.1546 27.8945 95.7327 27.8945C95.167 27.8945 94.654 27.7619 94.1938 27.4966C93.7368 27.2282 93.3724 26.8287 93.1008 26.2981C92.8323 25.7644 92.6981 25.0964 92.6981 24.2942C92.6981 23.4856 92.8323 22.8033 93.1008 22.2472C93.3724 21.6879 93.7384 21.2644 94.1986 20.9767C94.6588 20.6859 95.1718 20.5405 95.7375 20.5405C96.1689 20.5405 96.5237 20.614 96.8018 20.761C97.083 20.9048 97.3067 21.079 97.4729 21.2836C97.6391 21.4849 97.7654 21.6751 97.8517 21.854H97.9475V20.6364H99.659V28.1199C99.659 28.7495 99.5088 29.2704 99.2084 29.6827C98.9079 30.095 98.4972 30.4034 97.9763 30.608C97.4553 30.8125 96.8641 30.9148 96.2025 30.9148ZM96.2169 26.533C96.5844 26.533 96.8976 26.4435 97.1565 26.2646C97.4154 26.0856 97.6119 25.8283 97.7462 25.4927C97.8804 25.1571 97.9475 24.7544 97.9475 24.2846C97.9475 23.8212 97.8804 23.4153 97.7462 23.0669C97.6151 22.7186 97.4202 22.4485 97.1613 22.2567C96.9056 22.0618 96.5908 21.9643 96.2169 21.9643C95.8302 21.9643 95.5074 22.065 95.2485 22.2663C94.9896 22.4677 94.7947 22.7441 94.6636 23.0957C94.5326 23.4441 94.4671 23.8404 94.4671 24.2846C94.4671 24.7353 94.5326 25.13 94.6636 25.4688C94.7979 25.8043 94.9944 26.0664 95.2533 26.255C95.5154 26.4403 95.8366 26.533 96.2169 26.533ZM110.606 22.5827L109.024 22.7553C108.979 22.5955 108.901 22.4453 108.789 22.3047C108.681 22.1641 108.534 22.0506 108.348 21.9643C108.163 21.878 107.936 21.8349 107.667 21.8349C107.306 21.8349 107.003 21.9132 106.757 22.0698C106.514 22.2264 106.394 22.4293 106.397 22.6786C106.394 22.8928 106.472 23.0669 106.632 23.2012C106.795 23.3354 107.063 23.4457 107.437 23.532L108.693 23.8004C109.39 23.9506 109.908 24.1887 110.247 24.5147C110.589 24.8407 110.761 25.2674 110.764 25.7947C110.761 26.2582 110.625 26.6673 110.357 27.022C110.092 27.3736 109.722 27.6484 109.249 27.8466C108.776 28.0447 108.233 28.1438 107.619 28.1438C106.718 28.1438 105.993 27.9553 105.443 27.5781C104.893 27.1978 104.566 26.6689 104.46 25.9913L106.153 25.8283C106.229 26.1607 106.392 26.4116 106.642 26.581C106.891 26.7504 107.215 26.835 107.615 26.835C108.027 26.835 108.358 26.7504 108.607 26.581C108.86 26.4116 108.986 26.2022 108.986 25.9529C108.986 25.742 108.904 25.5678 108.741 25.4304C108.581 25.293 108.332 25.1875 107.993 25.114L106.737 24.8503C106.031 24.7033 105.509 24.4556 105.17 24.1072C104.831 23.7557 104.663 23.3114 104.666 22.7745C104.663 22.3207 104.786 21.9276 105.036 21.5952C105.288 21.2596 105.638 21.0007 106.085 20.8185C106.536 20.6332 107.055 20.5405 107.643 20.5405C108.506 20.5405 109.186 20.7243 109.681 21.0918C110.18 21.4593 110.488 21.9563 110.606 22.5827ZM115.407 28.1438C114.688 28.1438 114.065 27.9856 113.538 27.6692C113.01 27.3528 112.601 26.9102 112.31 26.3413C112.023 25.7724 111.879 25.1076 111.879 24.3469C111.879 23.5863 112.023 22.9199 112.31 22.3478C112.601 21.7757 113.01 21.3315 113.538 21.0151C114.065 20.6987 114.688 20.5405 115.407 20.5405C116.127 20.5405 116.75 20.6987 117.277 21.0151C117.804 21.3315 118.212 21.7757 118.5 22.3478C118.79 22.9199 118.936 23.5863 118.936 24.3469C118.936 25.1076 118.79 25.7724 118.5 26.3413C118.212 26.9102 117.804 27.3528 117.277 27.6692C116.75 27.9856 116.127 28.1438 115.407 28.1438ZM115.417 26.7536C115.807 26.7536 116.133 26.6465 116.395 26.4324C116.657 26.215 116.852 25.9242 116.98 25.5598C117.111 25.1955 117.176 24.7896 117.176 24.3422C117.176 23.8915 117.111 23.484 116.98 23.1197C116.852 22.7521 116.657 22.4597 116.395 22.2424C116.133 22.025 115.807 21.9164 115.417 21.9164C115.017 21.9164 114.685 22.025 114.42 22.2424C114.158 22.4597 113.961 22.7521 113.83 23.1197C113.702 23.484 113.638 23.8915 113.638 24.3422C113.638 24.7896 113.702 25.1955 113.83 25.5598C113.961 25.9242 114.158 26.215 114.42 26.4324C114.685 26.6465 115.017 26.7536 115.417 26.7536ZM123.621 28.1438C122.902 28.1438 122.278 27.9856 121.751 27.6692C121.224 27.3528 120.815 26.9102 120.524 26.3413C120.236 25.7724 120.092 25.1076 120.092 24.3469C120.092 23.5863 120.236 22.9199 120.524 22.3478C120.815 21.7757 121.224 21.3315 121.751 21.0151C122.278 20.6987 122.902 20.5405 123.621 20.5405C124.34 20.5405 124.963 20.6987 125.49 21.0151C126.018 21.3315 126.425 21.7757 126.713 22.3478C127.004 22.9199 127.149 23.5863 127.149 24.3469C127.149 25.1076 127.004 25.7724 126.713 26.3413C126.425 26.9102 126.018 27.3528 125.49 27.6692C124.963 27.9856 124.34 28.1438 123.621 28.1438ZM123.63 26.7536C124.02 26.7536 124.346 26.6465 124.608 26.4324C124.87 26.215 125.065 25.9242 125.193 25.5598C125.324 25.1955 125.39 24.7896 125.39 24.3422C125.39 23.8915 125.324 23.484 125.193 23.1197C125.065 22.7521 124.87 22.4597 124.608 22.2424C124.346 22.025 124.02 21.9164 123.63 21.9164C123.231 21.9164 122.898 22.025 122.633 22.2424C122.371 22.4597 122.175 22.7521 122.044 23.1197C121.916 23.484 121.852 23.8915 121.852 24.3422C121.852 24.7896 121.916 25.1955 122.044 25.5598C122.175 25.9242 122.371 26.215 122.633 26.4324C122.898 26.6465 123.231 26.7536 123.63 26.7536ZM130.358 23.6854V28H128.622V20.6364H130.281V21.8876H130.367C130.537 21.4753 130.807 21.1477 131.177 20.9048C131.551 20.6619 132.013 20.5405 132.563 20.5405C133.071 20.5405 133.514 20.6491 133.891 20.8665C134.271 21.0838 134.565 21.3986 134.773 21.8109C134.984 22.2232 135.088 22.7234 135.085 23.3114V28H133.349V23.5799C133.349 23.0877 133.221 22.7026 132.966 22.4245C132.713 22.1465 132.363 22.0075 131.916 22.0075C131.612 22.0075 131.342 22.0746 131.105 22.2088C130.872 22.3398 130.688 22.53 130.554 22.7793C130.423 23.0286 130.358 23.3306 130.358 23.6854Z" fill="white"/>
</svg>
