<svg width="35" height="36" viewBox="0 0 35 36" fill="none" xmlns="http://www.w3.org/2000/svg">
<path d="M23.1075 16.1935C26.2033 16.1935 28.713 13.6838 28.713 10.588C28.713 7.49211 26.2033 4.98242 23.1075 4.98242C20.0116 4.98242 17.502 7.49211 17.502 10.588C17.502 13.6838 20.0116 16.1935 23.1075 16.1935Z" fill="#86DFAD"/>
<path d="M34.8166 18.0623C34.5675 17.6886 34.1938 17.4395 33.6955 17.4395C30.955 17.4395 28.3391 18.6851 26.7197 20.9273L25.5986 22.4222C24.2284 24.0415 22.1107 24.9135 19.9931 24.9135H16.2561C15.5087 24.9135 15.0104 24.4152 15.0104 23.6678C15.0104 22.9204 15.5087 22.4222 16.2561 22.4222H18.6228C20.6159 22.4222 22.4844 20.8028 22.4844 18.8097V18.6851C22.4844 18.0623 21.8616 17.4395 21.2388 17.4395H13.6401C9.15571 17.4395 5.54325 19.4325 3.55017 22.6713L0.186851 27.9031C-0.0622837 28.2768 -0.0622837 28.7751 0.186851 29.1488L3.92388 35.3772C4.04844 35.6263 4.42215 35.8754 4.67128 36C4.79585 36 4.79585 36 4.92042 36C5.16955 36 5.41869 35.8754 5.66782 35.7509C10.4014 32.6367 15.8824 31.0173 21.4879 31.0173C25.5986 31.0173 29.3356 28.7751 31.3287 25.1626L34.692 19.1834C34.9412 18.9343 34.9412 18.436 34.8166 18.0623Z" fill="#019542"/>
<path d="M15.0116 10.5882C15.0116 7.47405 16.8801 4.73356 19.496 3.36332C18.624 1.37024 16.631 0 14.3887 0C11.2746 0 8.7832 2.49135 8.7832 5.60554C8.7832 8.71972 11.2746 11.2111 14.3887 11.2111C14.6379 11.2111 14.7624 11.2111 15.0116 11.0865C15.0116 10.9619 15.0116 10.8374 15.0116 10.5882Z" fill="#86DFAD"/>
</svg>
