<svg width="31" height="36" viewBox="0 0 31 36" fill="none" xmlns="http://www.w3.org/2000/svg">
<path d="M19.9571 25.8281C19.3098 25.8281 18.7832 26.3548 18.7832 27.0021C18.7832 27.6494 19.3098 28.176 19.9571 28.176C20.6044 28.176 21.1311 27.6494 21.1311 27.0021C21.1311 26.3548 20.6044 25.8281 19.9571 25.8281Z" fill="#86DFAD"/>
<path d="M10.5626 16.4355C9.91531 16.4355 9.38867 16.9622 9.38867 17.6095C9.38867 18.2568 9.91531 18.7834 10.5626 18.7834C11.2099 18.7834 11.7365 18.2568 11.7365 17.6095C11.7365 16.9622 11.2099 16.4355 10.5626 16.4355Z" fill="#86DFAD"/>
<path d="M29.3479 0H1.17394C0.525867 0 0 0.525445 0 1.17394V34.8261C0 35.2331 0.210937 35.6106 0.556383 35.8246C0.903375 36.0386 1.33439 36.0574 1.69896 35.8762L5.86955 33.7909L10.0401 35.8762C10.3703 36.0412 10.7601 36.0412 11.0903 35.8762L15.2609 33.7909L19.4315 35.8762C19.5965 35.9587 19.7769 36 19.9565 36C20.1361 36 20.3165 35.9587 20.4815 35.8762L24.6521 33.7909L28.8227 35.8762C29.1873 36.0577 29.6183 36.0386 29.9653 35.8246C30.3107 35.6106 30.5217 35.233 30.5217 34.8261V1.17394C30.5217 0.525445 29.9959 0 29.3479 0ZM5.86962 4.69568C6.5179 4.69568 7.04355 5.22127 7.04355 5.86962C7.04355 6.51797 6.51797 7.04355 5.86962 7.04355C5.22134 7.04355 4.69568 6.51797 4.69568 5.86962C4.69568 5.22127 5.22127 4.69568 5.86962 4.69568ZM5.86962 11.7392C5.22134 11.7392 4.69568 11.2136 4.69568 10.5652C4.69568 9.91687 5.22127 9.39129 5.86962 9.39129C6.5179 9.39129 7.04355 9.91687 7.04355 10.5652C7.04355 11.2136 6.5179 11.7392 5.86962 11.7392ZM7.04348 17.6087C7.04348 15.6667 8.62326 14.087 10.5652 14.087C12.5072 14.087 14.087 15.6667 14.087 17.6087C14.087 19.5507 12.5072 21.1305 10.5652 21.1305C8.62326 21.1305 7.04348 19.5507 7.04348 17.6087ZM11.1102 28.1154C10.8809 28.3447 10.5806 28.4593 10.2802 28.4593C9.9798 28.4593 9.67943 28.3447 9.45021 28.1154C8.9917 27.6572 8.9917 26.9139 9.45021 26.4554L19.4109 16.4943C19.8694 16.0358 20.6123 16.0358 21.0709 16.4943C21.5294 16.9525 21.5294 17.6958 21.0709 18.1543L11.1102 28.1154ZM19.9566 30.5217C18.0146 30.5217 16.4348 28.942 16.4348 27C16.4348 25.058 18.0146 23.4783 19.9566 23.4783C21.8985 23.4783 23.4783 25.058 23.4783 27C23.4783 28.942 21.8985 30.5217 19.9566 30.5217ZM24.6522 11.7392H10.5652C9.91716 11.7392 9.39129 11.2137 9.39129 10.5652C9.39129 9.91673 9.91716 9.39129 10.5652 9.39129H24.6522C25.3003 9.39129 25.8261 9.91673 25.8261 10.5652C25.8261 11.2137 25.3003 11.7392 24.6522 11.7392ZM24.6522 7.04348H10.5652C9.91716 7.04348 9.39129 6.51804 9.39129 5.86955C9.39129 5.22105 9.91716 4.69568 10.5652 4.69568H24.6522C25.3003 4.69568 25.8261 5.22112 25.8261 5.86962C25.8261 6.51811 25.3003 7.04348 24.6522 7.04348Z" fill="#019542"/>
</svg>
