<svg width="20" height="27" viewBox="0 0 20 27" fill="none" xmlns="http://www.w3.org/2000/svg">
<path d="M15.7041 21.071C15.2594 21.071 14.8146 21.0442 14.3759 20.996V22.2294C14.3579 22.2294 14.3338 22.2348 14.3158 22.2348H2.95692C2.93288 22.2348 2.91485 22.2294 2.89682 22.2294V4.00613C2.91485 4.00613 2.93889 4.00076 2.95692 4.00076H14.3158C14.3338 4.00076 14.3519 4.00613 14.3699 4.00613V5.22888C14.8026 5.18061 15.2474 5.1538 15.6981 5.1538C16.233 5.1538 16.7559 5.19134 17.2607 5.25569V3.79697V2.9389C17.2607 1.32465 15.8243 0 14.0694 0H3.19131C1.43639 0 0 1.32465 0 2.9389V3.80233V22.7657V23.2859C0 24.9002 1.43639 26.2248 3.19131 26.2248H14.0814C15.8363 26.2248 17.2727 24.9002 17.2727 23.2859V22.7657V20.9691C16.7619 21.0389 16.239 21.071 15.7041 21.071ZM10.0066 24.9967H6.93554C6.47878 24.9967 6.10616 24.6535 6.10616 24.2352C6.10616 23.8169 6.47878 23.4736 6.93554 23.4736H10.0066C10.4634 23.4736 10.836 23.8169 10.836 24.2352C10.836 24.6535 10.4634 24.9967 10.0066 24.9967Z" fill="#86DFAD"/>
<path d="M19.3938 12.9294H18.8383V11.9656C18.8383 10.6265 17.7274 9.53711 16.363 9.53711C14.9989 9.53711 13.888 10.6256 13.888 11.9656V12.9294H13.3326C12.9989 12.9294 12.7266 13.1957 12.7266 13.5241V17.6852C12.7266 18.0126 12.9994 18.2787 13.3326 18.2787H19.3935C19.7274 18.2787 19.9993 18.0124 19.9993 17.6852V13.5241C19.9998 13.1957 19.7269 12.9294 19.3938 12.9294ZM14.9484 11.9656C14.9484 11.2001 15.5831 10.5779 16.3628 10.5779C17.1427 10.5779 17.7774 11.2008 17.7774 11.9656V12.9294H14.9484V11.9656Z" fill="#019542"/>
</svg>
