<svg width="28" height="28" viewBox="0 0 28 28" fill="none" xmlns="http://www.w3.org/2000/svg">
<path d="M0.62496 14.2044C0.969959 14.2044 1.24998 13.9596 1.24998 13.658C1.24998 9.13858 5.45495 5.46275 10.625 5.46275C15.6962 5.46275 17.4724 7.96942 18.9 9.98433C19.74 11.1699 20.4649 12.1938 21.6825 12.539C22.0187 12.633 22.3637 12.4735 22.47 12.1883C22.5762 11.9009 22.3962 11.5927 22.0687 11.4999C21.2875 11.278 20.6737 10.4126 19.9624 9.40953C18.4562 7.28312 16.3937 4.37109 10.625 4.37109C4.76624 4.37109 0 8.53756 0 13.659C0 13.9596 0.27996 14.2044 0.62496 14.2044Z" fill="#86DFAD"/>
<path d="M1.25265 18.0306C1.3464 18.0306 1.44138 18.012 1.53267 17.9727C1.8414 17.8372 1.96644 17.5094 1.81269 17.2395C1.58646 16.8461 1.25394 16.1293 1.25394 15.8452C1.25394 15.5436 0.973924 15.2988 0.628925 15.2988C0.283925 15.2988 0.00390625 15.5436 0.00390625 15.8452C0.00390625 16.4877 0.580175 17.5269 0.695135 17.729C0.803885 17.9192 1.02513 18.0306 1.25265 18.0306Z" fill="#86DFAD"/>
<path d="M4.63231 2.13732C4.91608 2.02479 5.15983 1.91769 5.38729 1.81386C6.32104 1.39534 6.99603 1.09268 9.99978 1.09268C13.3785 1.09268 14.6223 1.49589 15.9398 1.92424C16.1785 2.00184 16.4198 2.08052 16.6722 2.15591C16.7385 2.17666 16.806 2.18542 16.8747 2.18542C17.1347 2.18542 17.376 2.04338 17.466 1.81607C17.5785 1.53087 17.4048 1.22053 17.0772 1.12219C16.8347 1.04899 16.6047 0.973595 16.3735 0.899275C15.0098 0.457858 13.6011 0 9.99732 0C6.69105 0 5.8636 0.371501 4.81483 0.842471C4.6036 0.937536 4.37983 1.03808 4.1161 1.14078C3.80233 1.26427 3.66235 1.58768 3.80233 1.86304C3.94483 2.1384 4.31608 2.26081 4.63231 2.13732Z" fill="#86DFAD"/>
<path d="M20.0909 7.39032C20.1009 7.40123 20.9958 8.67426 21.2784 9.45445C21.3634 9.68612 21.6109 9.83471 21.8746 9.83471C21.9384 9.83471 22.0021 9.82595 22.0646 9.80956C22.3934 9.7167 22.5746 9.40963 22.4696 9.12223C22.1371 8.21528 21.1959 6.87346 21.1559 6.81773C20.9734 6.55984 20.5871 6.47901 20.2959 6.63851C20.0021 6.79699 19.9096 7.13248 20.0909 7.39032Z" fill="#86DFAD"/>
<path d="M4.01812 15.322C3.51187 13.7791 3.72187 12.1564 4.61062 10.7513C5.49937 9.34604 6.96187 8.32655 8.72688 7.88293C12.3231 6.99129 16.1193 8.79752 17.2031 11.9128C17.2181 11.9554 17.2381 11.9958 17.2656 12.0341C17.3431 12.1477 17.4106 12.2461 19.6331 13.8524C19.8981 14.0447 20.2906 14.0119 20.5131 13.7792C20.7331 13.5464 20.6956 13.2033 20.4294 13.0099C18.9081 11.9106 18.4619 11.5632 18.3631 11.4888C17.0344 7.86982 12.5856 5.78275 8.38563 6.83174C6.29689 7.35623 4.56937 8.56037 3.51814 10.2213C2.46815 11.8822 2.21942 13.7988 2.81813 15.6225C3.8431 18.7378 1.64438 19.6021 0.94436 19.7923C0.614361 19.883 0.431841 20.1889 0.53438 20.4774C0.618111 20.7112 0.86561 20.8609 1.13186 20.8609C1.19309 20.8609 1.25684 20.8533 1.31813 20.8369C3.22939 20.3146 5.08189 18.5564 4.01812 15.322Z" fill="#86DFAD"/>
<path d="M0.924772 6.47765C1.21979 6.63172 1.60352 6.55197 1.78604 6.29408C2.32979 5.51169 5.00353 3.27823 9.99975 3.27823C14.8047 3.27823 18.2235 5.40572 18.8397 6.29408C18.9597 6.46234 19.1647 6.55633 19.3747 6.55633C19.486 6.55633 19.5985 6.53118 19.6998 6.47765C19.9935 6.32031 20.0885 5.98486 19.9098 5.72589C19.0522 4.49113 15.266 2.18555 9.99975 2.18555C4.40101 2.18555 1.39979 4.74139 0.714773 5.72589C0.537292 5.98486 0.631042 6.32031 0.924772 6.47765Z" fill="#86DFAD"/>
<path d="M16.4428 22.6746C16.6603 22.4429 16.6179 22.0999 16.3503 21.9097C13.1516 19.6468 9.75783 16.95 8.82408 14.1111C8.68533 13.6905 8.74281 13.2479 8.98533 12.8644C9.22785 12.4808 9.62658 12.2044 10.1066 12.0831C10.5891 11.964 11.0966 12.0132 11.5341 12.2241C11.9728 12.435 12.2891 12.7846 12.4278 13.2053C12.8403 14.4575 14.3003 16.0343 16.8891 18.0252C17.1478 18.2262 17.5416 18.2022 17.7703 17.976C17.9991 17.7498 17.9741 17.4045 17.7141 17.2057C14.7616 14.9339 13.8616 13.6118 13.6278 12.9026C13.3978 12.2 12.8691 11.6198 12.1391 11.2668C11.4091 10.915 10.5678 10.833 9.76281 11.0319C8.95908 11.234 8.29533 11.6951 7.89157 12.3344C7.4878 12.9725 7.39282 13.7101 7.6228 14.4105C8.65153 17.54 12.214 20.3854 15.564 22.7565C15.6803 22.8385 15.819 22.8778 15.9566 22.8778C16.1391 22.8778 16.3191 22.809 16.4428 22.6746Z" fill="#86DFAD"/>
<path d="M11.2275 13.5072C11.1313 13.2165 10.79 13.0483 10.4538 13.1335C10.1226 13.2165 9.93133 13.5203 10.0263 13.8099C11.0113 16.8038 14.7525 19.2865 17.0301 20.7977L17.7451 19.8995C15.6325 18.4987 12.0975 16.1537 11.2275 13.5072Z" fill="#86DFAD"/>
<path d="M8.72063 18.9574C8.6144 18.67 8.26313 18.5138 7.93437 18.6034C7.6056 18.6951 7.42437 19.0033 7.52937 19.2907C8.06438 20.7527 7.0131 23.62 5.43189 24.0679C5.10312 24.1608 4.92441 24.4689 5.03064 24.7563C5.11566 24.9869 5.36187 25.1344 5.62566 25.1344C5.68941 25.1344 5.75568 25.1256 5.81814 25.1082C8.22563 24.4241 9.38438 20.7723 8.72063 18.9574Z" fill="#86DFAD"/>
<path d="M6.4317 14.7503C5.88918 12.5966 7.17297 10.5478 9.41669 9.98506C11.7342 9.40704 14.1654 10.5773 14.8305 12.6032C15.0379 13.2315 15.5854 13.9691 17.578 15.525C17.8355 15.725 18.2305 15.7064 18.4604 15.4814C18.6904 15.2562 18.6679 14.911 18.4105 14.7099C16.5192 13.2337 16.1455 12.6469 16.0317 12.3016C15.1742 9.69771 12.0505 8.18866 9.07298 8.93499C6.18549 9.65945 4.52547 12.2601 5.21172 14.9853C6.47424 20.0095 5.5317 21.1721 2.94045 21.8802C2.61045 21.9709 2.42794 22.2769 2.53047 22.5653C2.6142 22.7991 2.8617 22.9489 3.12795 22.9489C3.18918 22.9489 3.25293 22.9412 3.31422 22.9248C6.93045 21.9338 7.71917 19.8729 6.4317 14.7503Z" fill="#86DFAD"/>
<path d="M14.3688 23.7046C13.7476 22.9681 12.8088 21.8535 11.2501 21.8535C9.13009 21.8535 8.79634 25.0114 8.75134 25.6441C8.72884 25.9446 8.99135 26.2046 9.33634 26.2232C9.34882 26.2243 9.36259 26.2243 9.37507 26.2243C9.70384 26.2243 9.97759 26.0014 9.9988 25.7118C10.0788 24.582 10.5713 22.9462 11.2501 22.9462C12.1763 22.9462 12.8351 23.7264 13.3613 24.3525C13.5713 24.6016 13.76 24.8213 13.9325 24.971C14.1763 25.1841 14.5726 25.1841 14.8163 24.971C15.0601 24.7579 15.0601 24.4115 14.8163 24.1984C14.6814 24.0794 14.5351 23.9024 14.3688 23.7046Z" fill="#86DFAD"/>
<path d="M22.9775 20.6085C23.7619 20.6085 24.4155 20.3484 25.0038 19.8281C25.6575 19.3079 25.9843 18.4625 25.9843 17.617C25.9843 16.9667 25.7882 16.3164 25.396 15.8612C24.8731 15.0808 24.0233 14.5605 22.9775 14.5605C21.3434 14.5605 19.9707 15.9262 19.9707 17.552C19.9707 19.2428 21.3434 20.6085 22.9775 20.6085Z" fill="#019542"/>
<path d="M24.7426 22.1685C24.5466 22.1685 24.4158 22.1035 24.2197 22.1035H21.7358C19.8403 22.1035 18.2715 23.6643 18.2715 25.5502C18.2715 26.0054 18.4676 26.3305 18.7944 26.5907C19.3173 26.9159 20.5593 27.306 22.9778 27.306C25.3963 27.306 26.5728 26.9159 27.1611 26.5907C27.1611 26.5907 27.2265 26.5257 27.2919 26.5257C27.5533 26.3305 27.7494 26.0054 27.7494 25.5502C27.6841 23.8594 26.4421 22.4287 24.7426 22.1685Z" fill="#019542"/>
</svg>
