<svg width="39" height="36" viewBox="0 0 39 36" fill="none" xmlns="http://www.w3.org/2000/svg">
<path d="M35.8277 0H11.5887C10.2021 0 9.07812 1.12398 9.07812 2.51056V9.2885C9.49789 9.2885 26.5923 9.2885 26.7482 9.2885C29.5169 9.2885 31.7694 11.541 31.7694 14.3096C31.7694 17.1867 31.7694 17.5845 31.7694 20.3685H35.8277C37.2142 20.3685 38.3383 19.2445 38.3383 17.8579V2.51056C38.3383 1.12406 37.2143 0 35.8277 0Z" fill="#86DFAD"/>
<path d="M26.7496 11.7988H2.51056C1.12398 11.7988 0 12.9228 0 14.3094V29.6567C0 31.0433 1.12398 32.1673 2.51056 32.1673H10.2375L12.7088 35.1055C13.1858 35.6726 13.889 36 14.6301 36C15.3713 36 16.0744 35.6726 16.5515 35.1055L19.0228 32.1673H26.7497C28.1363 32.1673 29.2603 31.0433 29.2603 29.6567V14.3094C29.2601 12.9229 28.1361 11.7988 26.7496 11.7988ZM12.4126 25.7924H5.87146C5.17821 25.7924 4.61618 25.2303 4.61618 24.5371C4.61618 23.8438 5.17821 23.2818 5.87146 23.2818H12.4127C13.1059 23.2818 13.6679 23.8438 13.6679 24.5371C13.6678 25.2304 13.1058 25.7924 12.4126 25.7924ZM22.7215 20.601H5.87146C5.17821 20.601 4.61618 20.039 4.61618 19.3458C4.61618 18.6525 5.17821 18.0905 5.87146 18.0905H22.7216C23.4149 18.0905 23.9769 18.6525 23.9769 19.3458C23.9768 20.039 23.4149 20.601 22.7215 20.601Z" fill="#019542"/>
</svg>
