<svg width="30" height="30" viewBox="0 0 30 30" fill="none" xmlns="http://www.w3.org/2000/svg">
<path fill-rule="evenodd" clip-rule="evenodd" d="M15.7056 12.2881C14.3332 13.5017 12.8085 14.1084 10.9786 14.1084C7.16658 14.1084 3.96444 10.9227 3.96444 6.9784C3.96444 3.1858 7.16658 0 10.9786 0C13.4183 0 15.4005 1.21364 16.6205 3.03409C17.5353 4.09601 17.9928 5.61306 17.9928 7.13011C17.9928 9.10226 17.2304 11.0744 15.7056 12.2881ZM14.4859 17.6705L14.4859 17.6705C14.6765 17.7084 14.867 17.7463 15.0957 17.7463C16.5149 17.9636 17.7974 18.5307 18.8661 19.3504C17.1283 20.6241 16 22.6803 16 25C16 26.5732 16.519 28.0252 17.3951 29.1941C15.8391 29.5095 13.7613 29.7309 10.9787 29.7309C5.33687 29.7309 2.43972 28.8207 1.21985 28.0622C0.457443 27.4554 0 26.6968 0 25.6349C0 21.2356 3.65958 17.5947 8.08156 17.5947H13.8758C14.1046 17.5947 14.2952 17.6326 14.4859 17.6705Z" fill="#86DFAD"/>
<path fill-rule="evenodd" clip-rule="evenodd" d="M24.5 19C21.4625 19 19 21.4625 19 24.5C19 27.5375 21.4625 30 24.5 30C27.5375 30 30 27.5375 30 24.5C30 21.4625 27.5375 19 24.5 19ZM26.884 23.57C26.9279 23.5198 26.9613 23.4614 26.9823 23.3981C27.0033 23.3348 27.0114 23.268 27.0061 23.2015C27.0009 23.135 26.9824 23.0703 26.9518 23.0111C26.9212 22.9518 26.879 22.8994 26.8278 22.8567C26.7766 22.814 26.7173 22.782 26.6535 22.7625C26.5898 22.7431 26.5228 22.7366 26.4564 22.7434C26.3901 22.7502 26.3258 22.7703 26.2674 22.8023C26.2089 22.8344 26.1574 22.8778 26.116 22.93L23.966 25.5095L22.8535 24.3965C22.7592 24.3054 22.6329 24.255 22.5018 24.2562C22.3707 24.2573 22.2453 24.3099 22.1526 24.4026C22.0599 24.4953 22.0073 24.6207 22.0062 24.7518C22.005 24.8829 22.0554 25.0092 22.1465 25.1035L23.6465 26.6035C23.6956 26.6526 23.7544 26.6909 23.8192 26.716C23.884 26.7411 23.9532 26.7525 24.0226 26.7493C24.092 26.7462 24.16 26.7286 24.2222 26.6977C24.2844 26.6668 24.3395 26.6233 24.384 26.57L26.884 23.57Z" fill="#019542"/>
</svg>
